<svg width="1053" height="575" viewBox="0 0 1053 575" fill="none" xmlns="http://www.w3.org/2000/svg">
<g filter="url(#filter0_d_97_75)">
<path d="M305.82 254.864H309.404V286.736H305.82L303.004 276.368C302.748 275.344 302.449 274.619 302.108 274.192C301.852 273.68 301.297 273.381 300.444 273.296C299.59 273.125 298.14 273.04 296.092 273.04H282.908V303.248C282.908 306.149 283.036 307.899 283.292 308.496C283.548 309.008 284.358 309.349 285.724 309.52L295.324 310.416V314H257.692V310.416L264.732 309.52C266.097 309.349 266.908 309.008 267.164 308.496C267.42 307.899 267.548 306.149 267.548 303.248V237.712C267.548 234.811 267.42 233.104 267.164 232.592C266.908 231.995 266.097 231.611 264.732 231.44L257.692 230.544V226.96H318.364V248.976H314.78L310.684 234.768C310.428 233.744 310.129 233.019 309.788 232.592C309.532 232.08 308.977 231.781 308.124 231.696C307.27 231.525 305.82 231.44 303.772 231.44H282.908V268.56H296.092C298.14 268.56 299.59 268.517 300.444 268.432C301.297 268.261 301.852 267.963 302.108 267.536C302.449 267.024 302.748 266.256 303.004 265.232L305.82 254.864ZM404.343 310.416V314H367.351V310.416L374.391 309.52C375.756 309.349 376.567 309.008 376.823 308.496C377.079 307.899 377.207 306.149 377.207 303.248V253.584H350.583V303.248C350.583 306.149 350.711 307.899 350.967 308.496C351.223 309.008 352.033 309.349 353.399 309.52L360.439 310.416V314H326.007V310.416L333.047 309.52C334.412 309.349 335.223 309.008 335.479 308.496C335.735 307.899 335.863 306.149 335.863 303.248V259.856C335.863 256.955 335.735 255.248 335.479 254.736C335.223 254.139 334.412 253.755 333.047 253.584L326.007 252.688V249.104H335.863V246.032C335.863 241.509 336.759 237.2 338.551 233.104C340.428 229.008 343.457 225.68 347.639 223.12C351.82 220.56 357.367 219.28 364.279 219.28C368.119 219.28 371.532 219.877 374.519 221.072C377.505 222.181 380.023 223.717 382.071 225.68C383.863 223.376 386.209 221.541 389.111 220.176C392.097 218.725 395.767 218 400.119 218C405.324 218 409.591 218.896 412.919 220.688C416.332 222.48 418.764 224.869 420.215 227.856C421.751 230.843 422.22 234.085 421.623 237.584L407.543 239.632C408.396 233.232 408.14 228.795 406.775 226.32C405.495 223.76 403.276 222.48 400.119 222.48C398.412 222.48 396.919 222.949 395.639 223.888C394.444 224.827 393.505 226.533 392.823 229.008C392.225 231.397 391.927 234.939 391.927 239.632V249.104H411.127V253.584H391.927V303.248C391.927 306.149 392.055 307.899 392.311 308.496C392.567 309.008 393.377 309.349 394.743 309.52L404.343 310.416ZM350.583 243.472V249.104H377.207V243.472C377.207 235.792 376.14 230.587 374.007 227.856C371.873 225.125 368.631 223.76 364.279 223.76C361.633 223.76 359.287 224.315 357.239 225.424C355.191 226.448 353.569 228.368 352.375 231.184C351.18 234 350.583 238.096 350.583 243.472ZM479.037 310.8C477.671 312.08 476.007 313.147 474.045 314C472.167 314.853 469.863 315.28 467.133 315.28C463.634 315.28 460.69 314.512 458.301 312.976C455.997 311.44 454.461 309.264 453.693 306.448C450.877 309.52 447.762 311.781 444.349 313.232C441.021 314.597 437.607 315.28 434.109 315.28C428.221 315.28 423.826 313.659 420.925 310.416C418.023 307.088 416.573 302.949 416.573 298C416.573 292.965 418.407 288.912 422.077 285.84C425.746 282.683 432.231 281.104 441.533 281.104H453.181V270.736C453.181 263.653 452.242 258.832 450.365 256.272C448.573 253.627 446.055 252.304 442.812 252.304C440.679 252.304 438.717 252.859 436.925 253.968C435.133 254.992 433.853 256.955 433.085 259.856C432.402 262.672 432.53 266.768 433.469 272.144L419.389 270.096C418.706 266.171 419.133 262.544 420.669 259.216C422.29 255.803 424.978 253.072 428.733 251.024C432.487 248.891 437.266 247.824 443.069 247.824C449.639 247.824 454.717 248.891 458.301 251.024C461.885 253.157 464.359 255.973 465.725 259.472C467.175 262.971 467.901 266.725 467.901 270.736V300.304C467.901 304.656 468.285 307.387 469.053 308.496C469.821 309.605 470.674 310.16 471.613 310.16C473.149 310.16 474.855 309.264 476.733 307.472L479.037 310.8ZM439.741 308.496C441.959 308.496 444.135 307.941 446.269 306.832C448.487 305.637 450.791 303.461 453.181 300.304V285.584H443.581C439.399 285.584 436.37 286.565 434.493 288.528C432.615 290.491 431.677 293.563 431.677 297.744C431.677 301.157 432.359 303.803 433.725 305.68C435.09 307.557 437.095 308.496 439.741 308.496ZM528.2 300.688C527.09 305.893 524.957 309.648 521.8 311.952C518.728 314.171 514.973 315.28 510.536 315.28C506.013 315.28 502.301 314.299 499.4 312.336C496.498 310.288 494.365 307.6 493 304.272C491.634 300.944 490.952 297.403 490.952 293.648V259.856C490.952 256.955 490.824 255.248 490.568 254.736C490.312 254.139 489.501 253.755 488.135 253.584L481.096 252.688V249.104H490.952V234.256L505.672 231.312V249.104H526.152V253.584H505.672V296.208C505.672 301.669 506.354 305.467 507.72 307.6C509.085 309.648 510.834 310.672 512.968 310.672C515.186 310.672 516.893 309.819 518.088 308.112C519.368 306.405 520.178 303.291 520.52 298.768L528.2 300.688ZM598.412 310.8C597.046 312.08 595.382 313.147 593.42 314C591.542 314.853 589.238 315.28 586.508 315.28C583.009 315.28 580.065 314.512 577.676 312.976C575.372 311.44 573.836 309.264 573.068 306.448C570.252 309.52 567.137 311.781 563.724 313.232C560.396 314.597 556.982 315.28 553.484 315.28C547.596 315.28 543.201 313.659 540.3 310.416C537.398 307.088 535.948 302.949 535.948 298C535.948 292.965 537.782 288.912 541.452 285.84C545.121 282.683 551.606 281.104 560.908 281.104H572.556V270.736C572.556 263.653 571.617 258.832 569.74 256.272C567.948 253.627 565.43 252.304 562.188 252.304C560.054 252.304 558.092 252.859 556.3 253.968C554.508 254.992 553.228 256.955 552.46 259.856C551.777 262.672 551.905 266.768 552.844 272.144L538.764 270.096C538.081 266.171 538.508 262.544 540.044 259.216C541.665 255.803 544.353 253.072 548.108 251.024C551.862 248.891 556.641 247.824 562.444 247.824C569.014 247.824 574.092 248.891 577.676 251.024C581.26 253.157 583.734 255.973 585.1 259.472C586.55 262.971 587.276 266.725 587.276 270.736V300.304C587.276 304.656 587.66 307.387 588.428 308.496C589.196 309.605 590.049 310.16 590.988 310.16C592.524 310.16 594.23 309.264 596.108 307.472L598.412 310.8ZM559.116 308.496C561.334 308.496 563.51 307.941 565.644 306.832C567.862 305.637 570.166 303.461 572.556 300.304V285.584H562.956C558.774 285.584 555.745 286.565 553.868 288.528C551.99 290.491 551.052 293.563 551.052 297.744C551.052 301.157 551.734 303.803 553.1 305.68C554.465 307.557 556.47 308.496 559.116 308.496ZM601.111 222.864V219.28H625.687V303.248C625.687 306.149 625.815 307.899 626.071 308.496C626.327 309.008 627.137 309.349 628.503 309.52L635.543 310.416V314H601.111V310.416L608.151 309.52C609.516 309.349 610.327 309.008 610.583 308.496C610.839 307.899 610.967 306.149 610.967 303.248V230.032C610.967 227.131 610.839 225.424 610.583 224.912C610.327 224.315 609.516 223.931 608.151 223.76L601.111 222.864ZM657.659 238.096C655.013 238.096 652.88 237.285 651.259 235.664C649.637 233.957 648.827 231.781 648.827 229.136C648.827 226.491 649.637 224.357 651.259 222.736C652.88 221.115 655.013 220.304 657.659 220.304C660.219 220.304 662.352 221.115 664.059 222.736C665.765 224.357 666.619 226.491 666.619 229.136C666.619 231.781 665.765 233.957 664.059 235.664C662.352 237.285 660.219 238.096 657.659 238.096ZM640.507 252.688V249.104H665.083V303.248C665.083 306.149 665.211 307.899 665.467 308.496C665.723 309.008 666.533 309.349 667.899 309.52L674.939 310.416V314H640.507V310.416L647.547 309.52C648.912 309.349 649.723 309.008 649.979 308.496C650.235 307.899 650.363 306.149 650.363 303.248V259.856C650.363 256.955 650.235 255.248 649.979 254.736C649.723 254.139 648.912 253.755 647.547 253.584L640.507 252.688ZM725.45 300.688C724.34 305.893 722.207 309.648 719.05 311.952C715.978 314.171 712.223 315.28 707.786 315.28C703.263 315.28 699.551 314.299 696.65 312.336C693.748 310.288 691.615 307.6 690.25 304.272C688.884 300.944 688.202 297.403 688.202 293.648V259.856C688.202 256.955 688.074 255.248 687.818 254.736C687.562 254.139 686.751 253.755 685.385 253.584L678.346 252.688V249.104H688.202V234.256L702.922 231.312V249.104H723.402V253.584H702.922V296.208C702.922 301.669 703.604 305.467 704.97 307.6C706.335 309.648 708.084 310.672 710.218 310.672C712.436 310.672 714.143 309.819 715.338 308.112C716.618 306.405 717.428 303.291 717.77 298.768L725.45 300.688ZM766.222 320.4C764.259 325.776 762.083 330.085 759.694 333.328C757.39 336.571 754.531 338.917 751.118 340.368C747.704 341.819 743.438 342.544 738.318 342.544V328.464C743.523 328.464 747.704 328.08 750.862 327.312C754.104 326.629 756.579 325.477 758.286 323.856C760.078 322.32 761.4 320.315 762.254 317.84L763.534 314H756.878L738.702 259.856C738.104 257.893 737.592 256.528 737.166 255.76C736.824 254.907 736.398 254.352 735.885 254.096C735.459 253.84 734.776 253.669 733.838 253.584L726.797 252.688V249.104H761.358V252.688L754.318 253.584C753.294 253.669 752.654 254.011 752.398 254.608C752.227 255.12 752.611 256.869 753.55 259.856L767.502 302.096L781.966 259.344C782.904 256.613 783.288 255.035 783.118 254.608C783.032 254.096 782.35 253.755 781.07 253.584L774.03 252.688V249.104H798.478V252.688L791.438 253.584C790.158 253.755 789.304 254.096 788.878 254.608C788.451 255.12 787.768 256.699 786.83 259.344L766.222 320.4ZM816.373 288.144H811.893C811.893 282.341 811.722 277.264 811.381 272.912C811.039 268.56 810.613 264.635 810.101 261.136C809.589 257.552 809.077 254.096 808.565 250.768C808.053 247.44 807.626 243.899 807.285 240.144C806.943 236.304 806.773 231.909 806.773 226.96H821.493C821.493 231.909 821.322 236.304 820.981 240.144C820.639 243.899 820.213 247.44 819.701 250.768C819.189 254.096 818.677 257.552 818.165 261.136C817.653 264.635 817.226 268.56 816.885 272.912C816.543 277.264 816.373 282.341 816.373 288.144ZM814.069 315.28C811.423 315.28 809.247 314.469 807.541 312.848C805.919 311.141 805.109 308.923 805.109 306.192C805.109 303.461 805.919 301.285 807.541 299.664C809.247 298.043 811.423 297.232 814.069 297.232C816.714 297.232 818.89 298.043 820.597 299.664C822.303 301.285 823.157 303.461 823.157 306.192C823.157 308.923 822.303 311.141 820.597 312.848C818.89 314.469 816.714 315.28 814.069 315.28Z" fill="white"/>
<path d="M222.562 339.455H252.244V348.182H222.562V339.455Z" fill="white"/>
<path d="M252.188 328.976H830.453V337.296H252.188V328.976Z" fill="white"/>
</g>
<defs>
<filter id="filter0_d_97_75" x="0.5625" y="0" width="1051.89" height="574.182" filterUnits="userSpaceOnUse" color-interpolation-filters="sRGB">
<feFlood flood-opacity="0" result="BackgroundImageFix"/>
<feColorMatrix in="SourceAlpha" type="matrix" values="0 0 0 0 0 0 0 0 0 0 0 0 0 0 0 0 0 0 127 0" result="hardAlpha"/>
<feOffset dy="4"/>
<feGaussianBlur stdDeviation="111"/>
<feComposite in2="hardAlpha" operator="out"/>
<feColorMatrix type="matrix" values="0 0 0 0 0 0 0 0 0 0 0 0 0 0 0 0 0 0 1 0"/>
<feBlend mode="normal" in2="BackgroundImageFix" result="effect1_dropShadow_97_75"/>
<feBlend mode="normal" in="SourceGraphic" in2="effect1_dropShadow_97_75" result="shape"/>
</filter>
</defs>
</svg>
